<svg width="1376" height="550" viewBox="0 0 1376 550" fill="none" xmlns="http://www.w3.org/2000/svg">
<path d="M62.0383 533.753V252.795C62.0383 251.456 60.9225 250.452 59.6951 250.452H2.34316C1.00421 250.452 0 249.336 0 248.109V160.072C0 158.734 1.11579 157.729 2.34316 157.729H59.6951C61.034 157.729 62.0383 156.614 62.0383 155.386V116.333C62.0383 78.7309 73.4195 50.055 96.2933 30.3054C119.167 10.5558 152.195 0.625183 195.599 0.625183H273.928C275.267 0.625183 276.271 1.74098 276.271 2.96836V91.0047C276.271 92.3436 275.155 93.3478 273.928 93.3478H209.435C188.793 93.3478 172.056 110.085 172.056 130.727V155.275C172.056 156.613 173.172 157.618 174.399 157.618H266.787C268.126 157.618 269.13 158.734 269.13 159.961V247.997C269.13 249.336 268.014 250.34 266.787 250.34H174.399C173.06 250.34 172.056 251.456 172.056 252.684V533.641C172.056 534.98 170.94 535.984 169.713 535.984H64.493C63.1541 535.984 62.1499 534.868 62.1499 533.641L62.0383 533.753Z" fill="#222222"/>
<path d="M306.286 533.753V159.961C306.286 158.622 307.402 157.618 308.629 157.618H392.76C393.876 157.618 394.88 158.399 395.103 159.626L407.042 227.69C407.489 229.921 410.39 230.256 411.506 228.248C423.556 204.37 439.624 185.959 459.708 173.016C481.578 158.957 508.022 151.927 538.93 151.927H552.989C554.328 151.927 555.332 153.043 555.332 154.27V255.25C555.332 256.589 554.216 257.593 552.989 257.593H538.93C500.323 257.593 470.308 266.743 448.55 285.042C426.904 303.341 416.08 328.781 416.08 361.139V533.753C416.08 535.092 414.965 536.096 413.737 536.096H308.518C307.179 536.096 306.174 534.98 306.174 533.753H306.286Z" fill="#222222"/>
<path d="M663.676 523.599C632.991 506.75 609.002 482.984 591.93 452.523C574.747 422.061 566.267 387.36 566.267 348.307C566.267 309.254 574.635 273.437 591.26 242.307C607.886 211.176 630.983 186.963 660.551 169.78C690.008 152.597 723.817 144.117 761.977 144.117C800.138 144.117 831.045 152.485 859.052 169.11C887.17 185.736 909.262 209.502 925.441 240.187C941.62 270.871 949.989 306.688 950.435 347.638V369.507C950.435 370.846 949.319 371.851 948.092 371.851H677.623C676.172 371.851 674.945 373.19 675.28 374.752C679.408 399.634 689.897 419.607 706.634 434.782C724.04 450.514 745.352 458.325 770.569 458.325C788.198 458.325 803.262 454.643 815.87 447.278C828.032 440.137 836.736 430.095 842.091 416.929C842.426 416.036 843.319 415.478 844.211 415.478H945.972C947.534 415.478 948.762 417.04 948.315 418.491C937.604 459.441 916.85 491.241 885.942 514.003C854.254 537.323 815.312 549.039 769.23 549.039C729.731 549.039 694.583 540.559 663.899 523.71L663.676 523.599ZM835.174 301.89C836.736 301.89 837.963 300.328 837.517 298.766C832.161 279.351 823.123 264.065 810.514 252.907C797.125 241.302 780.946 235.389 761.977 235.389C743.009 235.389 725.379 241.302 710.874 253.241C697.15 264.511 686.884 279.574 680.189 298.543C679.632 300.105 680.859 301.779 682.421 301.779H835.174V301.89Z" fill="#222222"/>
<path d="M1063.24 522.929C1036.13 505.523 1014.82 481.422 999.307 450.403C983.798 419.384 976.099 384.236 976.099 344.737C976.099 305.238 983.574 270.983 998.638 240.521C1013.59 210.06 1034.34 186.405 1060.79 169.445C1087.23 152.597 1117.02 144.117 1150.39 144.117C1174.71 144.117 1196.8 148.58 1216.78 157.283C1234.74 165.205 1249.8 175.917 1261.97 189.306C1263.42 190.868 1266.09 189.976 1266.09 187.744V2.85678C1266.09 1.51783 1267.21 0.513611 1268.44 0.513611H1373.66C1375 0.513611 1376 1.62941 1376 2.85678V533.641C1376 534.98 1374.88 535.984 1373.66 535.984H1289.53C1288.41 535.984 1287.41 535.092 1287.18 533.976L1279.37 483.096C1279.04 480.752 1275.91 480.418 1274.91 482.538C1265.31 501.952 1250.92 517.574 1231.73 529.289C1210.3 542.344 1184.86 548.927 1155.3 548.927C1121.04 548.927 1090.36 540.224 1063.13 522.818L1063.24 522.929ZM1240.99 427.194C1257.61 405.994 1265.98 378.545 1265.98 344.737C1265.98 310.928 1257.61 285.934 1240.99 265.515C1224.36 245.096 1202.94 234.831 1176.72 234.831C1150.5 234.831 1129.07 245.208 1112.45 265.85C1095.82 286.604 1087.46 313.383 1087.46 346.187C1087.46 378.992 1095.82 406.663 1112.45 427.64C1129.07 448.617 1150.5 459.106 1176.72 459.106C1202.94 459.106 1224.36 448.506 1240.99 427.306V427.194Z" fill="#222222"/>
</svg>
