<svg width="104" height="98" viewBox="0 0 104 98" fill="none" xmlns="http://www.w3.org/2000/svg">
<path d="M95.385 35.8712C100.339 38.4833 103.603 43.6686 103.428 49.6364C103.238 55.5597 99.6466 60.677 94.5447 63.1865C96.9319 68.1667 96.4055 74.2989 92.6978 79.0603C88.99 83.8218 83.0444 85.9182 77.4898 85.0299C76.3817 90.4662 72.3102 95.1991 66.4603 96.9687C60.6561 98.7233 54.6423 97.0496 50.7235 93.1132C46.5586 96.9409 40.4843 98.4886 34.7469 96.5765C29.0553 94.6495 25.255 89.837 24.4825 84.3768C18.8592 85.1363 13.0512 82.8535 9.64575 78.01C6.24029 73.1665 6.06844 67.0662 8.74758 62.1001C3.79373 59.488 0.529614 54.3027 0.719327 48.3794C0.90904 42.4562 4.50048 37.3388 9.60239 34.8293C7.2152 29.8491 7.74158 23.717 11.4493 18.9555C15.1571 14.1941 21.1027 12.0976 26.6573 12.9859C27.7654 7.54967 31.8369 2.81678 37.6868 1.04718C43.491 -0.707441 49.5048 0.966228 53.4236 4.90262C57.5885 1.07491 63.6628 -0.472732 69.4002 1.43929C75.0918 3.3663 78.8921 8.17884 79.6646 13.639C85.2879 12.8795 91.0959 15.1624 94.5014 20.0058C97.9068 24.8493 98.0932 30.9941 95.3538 35.9307L95.385 35.8712Z" fill="#0D0D0D"/>
</svg>
