<svg width="99" height="94" viewBox="0 0 99 94" fill="none" xmlns="http://www.w3.org/2000/svg">
<path d="M91.1022 58.6507C93.7026 63.326 93.6064 69.1757 90.3488 73.8544C87.1028 78.4899 81.5552 80.7045 76.161 80.0456C75.4701 85.2732 71.8456 89.8999 66.3908 91.7692C60.936 93.6385 55.0823 92.2088 51.1007 88.5975C47.3741 92.364 41.6432 94.0206 36.0367 92.3796C30.4747 90.7505 26.5359 86.2716 25.4557 81.0783C20.1228 81.9625 14.4528 80.0268 10.8596 75.5018C7.31093 70.9887 6.78328 65.1569 9.01725 60.389C4.11984 58.059 0.663922 53.2006 0.468427 47.5504C0.27293 41.9002 3.32201 36.9343 8.06042 34.3641C5.46007 29.6887 5.55626 23.8391 8.80225 19.2035C12.0482 14.568 17.5958 12.3534 22.99 13.0123C23.6809 7.78469 27.3055 3.15805 32.7603 1.28871C38.215 -0.580624 44.0687 0.849078 48.0503 4.46041C51.777 0.693874 57.5079 -0.962681 63.1143 0.678344C68.6763 2.30747 72.6152 6.78635 73.6954 11.9797C79.0282 11.0954 84.6983 13.0311 88.2914 17.5561C91.8401 22.0693 92.3678 27.901 90.1338 32.6689C95.0312 34.999 98.4871 39.8573 98.6826 45.5075C98.8781 51.1578 95.8174 56.1668 91.0462 58.6819L91.1022 58.6507Z" fill="#29A5BF"/>
</svg>
